<?xml version="1.0" encoding="UTF-8" standalone="no"?>
<!-- Created with Inkscape (http://www.inkscape.org/) -->

<svg
   version="1.1"
   id="svg1"
   width="298.66666"
   height="358.28119"
   viewBox="0 0 298.66666 358.28119"
   sodipodi:docname="logo.svg"
   inkscape:version="1.4.3 (0d15f75, 2025-12-25)"
   xmlns:inkscape="http://www.inkscape.org/namespaces/inkscape"
   xmlns:sodipodi="http://sodipodi.sourceforge.net/DTD/sodipodi-0.dtd"
   xmlns:xlink="http://www.w3.org/1999/xlink"
   xmlns="http://www.w3.org/2000/svg"
   xmlns:svg="http://www.w3.org/2000/svg">
  <sodipodi:namedview
     id="namedview4"
     pagecolor="#505050"
     bordercolor="#ffffff"
     borderopacity="1"
     inkscape:showpageshadow="0"
     inkscape:pageopacity="0"
     inkscape:pagecheckerboard="1"
     inkscape:deskcolor="#505050"
     inkscape:zoom="1.503834"
     inkscape:cx="146.95771"
     inkscape:cy="156.26724"
     inkscape:window-width="1710"
     inkscape:window-height="1045"
     inkscape:window-x="0"
     inkscape:window-y="39"
     inkscape:window-maximized="0"
     inkscape:current-layer="svg1" />
  <g
     id="g1">
    <g
       id="g2">
      <path
         id="path2"
         d="m 165.033,187.3885 c 29.2893,-29.2893 29.2893,-76.7767 0,-106.06604 -29.2893,-29.28932 -76.77669,-29.28932 -106.06601,0 -29.28932,29.28934 -29.28932,76.77674 0,106.06604 29.28932,29.2893 76.77671,29.2893 106.06601,0 z"
         style="fill:#5787f5;fill-opacity:1;fill-rule:nonzero;stroke:none"
         transform="matrix(1.3333333,0,0,-1.3333333,0,358.2812)" />
    </g>
    <g
       id="g3" />
    <g
       id="g4">
      <path
         style="font-weight:500;font-size:96px;font-family:Futura;fill:#573235"
         d="M 6.140625,0 21.375,-77.8125 l 24.84375,56.25 25.734375,-56.25 L 85.640625,0 H 74.4375 L 67.453125,-43.6875 46.03125,3.328125 25.21875,-43.734375 17.4375,0 Z"
         id="text4"
         transform="matrix(1.3333333,0,0,1.3333333,87.80208,229.31765)"
         aria-label="M" />
    </g>
    <g
       id="g5" />
    <g
       id="g6">
      <path
         style="font-weight:500;font-size:144px;font-family:Futura;fill:#6a3d41"
         d="m 7.59375,-54.773437 q 0,-22.921875 16.804687,-39.375 16.734375,-16.453123 40.21875,-16.453123 23.203125,0 39.796873,16.593748 16.66407,16.59375 16.66407,39.867187 0,23.414063 -16.73438,39.726562 Q 87.539062,1.96875 63.773437,1.96875 42.75,1.96875 26.015625,-12.585938 7.59375,-28.6875 7.59375,-54.773437 Z m 16.523437,0.210937 q 0,18 12.09375,29.601563 12.023438,11.601562 27.773438,11.601562 17.085937,0 28.828125,-11.8125 11.74219,-11.953125 11.74219,-29.109375 0,-17.367187 -11.601565,-29.109375 -11.53125,-11.8125 -28.546875,-11.8125 -16.945313,0 -28.617188,11.8125 Q 24.117187,-71.71875 24.117187,-54.5625 Z"
         id="text6"
         transform="matrix(1.3333333,0,0,1.3333333,63.55208,253.73953)"
         aria-label="O" />
    </g>
    <g
       id="g7" />
    <g
       id="g8">
      <path
         style="font-weight:500;font-size:96px;font-family:Futura;fill:#442a29"
         d="M 12.234375,-72.375 31.078125,-24 50.765625,-75.890625 69.609375,-24 89.625,-72.375 h 11.85938 L 69.140625,4.59375 50.53125,-46.6875 31.125,4.640625 0.375,-72.375 Z"
         id="text8"
         transform="matrix(1.3333333,0,0,1.3333333,81.458333,229.31765)"
         aria-label="W" />
    </g>
    <g
       id="g9" />
    <g
       id="g10">
      <path
         id="path10"
         d="M 1.25375,7.7375e-4 V -9.8664137 h 1.2304688 v 4.265625 H 7.91 v -4.265625 H 9.1404688 V 7.7375e-4 H 7.91 V -4.4875075 H 2.4842188 V 7.7375e-4 Z m 0,0"
         style="fill:#64c466;fill-opacity:1;fill-rule:nonzero;stroke:none"
         aria-label="H"
         transform="matrix(1.3333333,0,0,1.3333333,124.07833,251.07709)" />
    </g>
    <g
       id="g11" />
    <g
       id="g12">
      <path
         id="path12"
         d="m 5.1669547,0.23514875 c -0.8144531,0 -1.5117188,-0.15527344 -2.0976563,-0.45703125 C 2.4833609,-0.52657 2.0292594,-0.95137469 1.7099234,-1.4992262 1.3964469,-2.0441481 1.2411734,-2.6740309 1.2411734,-3.385945 v -6.4804687 h 1.2304688 v 6.3984375 c 0,0.5009765 0.1054687,0.946289 0.3164062,1.3359375 0.2109375,0.383789 0.515625,0.6855468 0.9140625,0.9023437 0.4042969,0.2197266 0.8935547,0.328125 1.4648438,0.328125 0.5683594,0 1.0546875,-0.1083984 1.453125,-0.328125 0.3984375,-0.2167969 0.703125,-0.5185547 0.9140625,-0.9023437 0.2109375,-0.3896485 0.3164062,-0.834961 0.3164062,-1.3359375 v -6.3984375 h 1.2304688 v 6.4804687 c 0,0.7119141 -0.1582031,1.3417969 -0.46875,1.8867188 C 8.2987906,-0.95137469 7.8505484,-0.52657 7.2646109,-0.2218825 6.6845328,0.07987531 5.9872672,0.23514875 5.1669547,0.23514875 Z m 0,0"
         style="fill:#64c466;fill-opacity:1;fill-rule:nonzero;stroke:none"
         aria-label="U"
         transform="matrix(1.3333333,0,0,1.3333333,142.55213,251.07709)" />
    </g>
    <g
       id="g13" />
    <g
       id="g14">
      <path
         id="path14"
         d="M 1.8746969,7.7375e-4 V -1.08907 h 3.046875 c 0.7412109,0 1.3037109,-0.1464844 1.6875,-0.4453125 0.3808593,-0.2958984 0.5742187,-0.7265625 0.5742187,-1.2890625 v -0.011719 c 0,-0.3808594 -0.09082,-0.6972657 -0.2695312,-0.9492188 C 6.7409078,-4.042195 6.4743062,-4.2326247 6.1168844,-4.3586012 5.7653219,-4.4904372 5.3258687,-4.55782 4.8043844,-4.55782 H 1.8746969 v -1.0546875 h 2.578125 c 0.75,0 1.3125,-0.1318359 1.6875,-0.3984375 0.375,-0.2636719 0.5625,-0.65625 0.5625,-1.171875 v -0.011719 c 0,-0.506836 -0.1728516,-0.8964844 -0.515625,-1.171875 C 5.8502828,-8.6388747 5.3786031,-8.77657 4.7692281,-8.77657 H 1.8746969 v -1.0898437 h 3.1523437 c 0.609375,0 1.1308594,0.102539 1.5703125,0.3046875 0.4365235,0.196289 0.7734375,0.477539 1.0078125,0.84375 0.234375,0.3691406 0.3515625,0.8027343 0.3515625,1.3007812 v 0.023437 c 0,0.3369141 -0.079102,0.65625 -0.234375,0.9609375 -0.149414,0.2988281 -0.3515625,0.5507813 -0.609375,0.7617188 -0.2578125,0.2050781 -0.5478515,0.336914 -0.8671875,0.3984375 v 0.1054687 c 0.4511719,0.055664 0.84375,0.1933594 1.171875,0.4101563 0.328125,0.2109375 0.5800781,0.4892578 0.7617188,0.8320312 0.1787109,0.3369141 0.2695312,0.7207031 0.2695312,1.1484375 v 0.011719 c 0,0.5800781 -0.1347656,1.0751953 -0.3984375,1.4882812 -0.2666015,0.40722656 -0.6503906,0.72363281 -1.1484375,0.94921875 -0.4921875,0.21972656 -1.0898437,0.328125 -1.7929687,0.328125 z m -0.6210938,0 V -9.8664137 H 2.4840719 V 7.7375e-4 Z m 0,0"
         style="fill:#64c466;fill-opacity:1;fill-rule:nonzero;stroke:none"
         aria-label="B"
         transform="matrix(1.3333333,0,0,1.3333333,161.53947,251.07709)" />
    </g>
  </g>
</svg>
